<?xml version="1.0" ?><svg height="50px" id="Слой_1" style="enable-background:new 0 0 50 50;" version="1.1" viewBox="0 0 50 50" width="50px" xml:space="preserve" xmlns="http://www.w3.org/2000/svg" xmlns:xlink="http://www.w3.org/1999/xlink"><style type="text/css">
	.st0{fill-rule:evenodd;clip-rule:evenodd;fill:#ED74A5;}
	.st1{fill:#444B54;}
	.st2{fill:#FFFFFF;}
	.st3{fill-rule:evenodd;clip-rule:evenodd;fill:#FFFFFF;}
	.st4{fill-rule:evenodd;clip-rule:evenodd;fill:#F6F7F7;}
	.st5{fill-rule:evenodd;clip-rule:evenodd;fill:#F8C9DC;}
	.st6{fill:#ED74A5;}
	.st7{fill-rule:evenodd;clip-rule:evenodd;fill:#659EC9;}
	.st8{fill-rule:evenodd;clip-rule:evenodd;fill:#FF697B;}
	.st9{fill-rule:evenodd;clip-rule:evenodd;fill:#74CAFC;}
	.st10{fill-rule:evenodd;clip-rule:evenodd;fill:#41CEB3;}
	.st11{fill-rule:evenodd;clip-rule:evenodd;fill:#FFEB6B;}
	.st12{fill-rule:evenodd;clip-rule:evenodd;fill:#387FB5;}
	.st13{fill-rule:evenodd;clip-rule:evenodd;fill:#FC913A;}
	.st14{fill-rule:evenodd;clip-rule:evenodd;fill:#3C688A;}
	.st15{fill-rule:evenodd;clip-rule:evenodd;fill:#6F4BB3;}
	.st16{fill-rule:evenodd;clip-rule:evenodd;fill:#38E8A1;}
	.st17{fill-rule:evenodd;clip-rule:evenodd;fill:#45BBFF;}
</style><g><path class="st7" d="M24.9999,1.64975c5.04744,0,9.93716,0.47247,14.51141,1.25994c3.94332,0.70875,6.94024,3.70113,7.65004,7.6385   c0.78866,4.48856,1.183,9.37087,1.183,14.48946c0,5.03979-0.39434,9.92214-1.183,14.4107   c-0.7098,4.01613-3.70672,6.92976-7.65004,7.63846c-4.57426,0.78751-9.46397,1.25998-14.51141,1.25998   c-5.04745,0-9.93717-0.47247-14.51142-1.25998c-3.94332-0.70871-6.86137-3.62233-7.57117-7.63846   c-0.86753-4.48856-1.26187-9.37091-1.26187-14.4107c0-5.11859,0.39433-10.0009,1.26187-14.48946   c0.7098-3.93737,3.62785-6.92975,7.57117-7.6385C15.06274,2.12222,19.95245,1.64975,24.9999,1.64975L24.9999,1.64975z"/><path class="st3" d="M32.33447,48.03178c-2.20826,0.15748-4.49539,0.31499-6.7825,0.31499V30.54994h-5.59952v-6.06353h5.59952   v-5.66982c0-4.17356,3.39125-7.5597,7.57117-7.5597h5.91498v6.14229H34.6216c-1.26186,0-2.28713,1.0237-2.28713,2.20492v4.88231   h6.54591l-0.9464,6.06353h-5.59952V48.03178z"/><path class="st1" d="M24.99932,50c-4.8689,0-9.84649-0.43135-14.79147-1.28456c-4.676-0.83965-8.08993-4.27962-8.9227-8.97974   C0.43472,35.32586,0,30.37208,0,25.03713c0-5.38649,0.43472-10.36604,1.29059-14.80165   c0.83141-4.60788,4.32822-8.1306,8.90504-8.95397c9.93479-1.70914,19.6889-1.70778,29.59652-0.00136   c4.63931,0.83422,8.16737,4.35694,8.99878,8.97567l0.48363,3.36672c0.12906,0.9034-0.49993,1.74169-1.40606,1.87055   c-0.89118,0.12344-1.74433-0.49918-1.87339-1.40393l-0.47412-3.30433c-0.57465-3.18903-3.05257-5.66321-6.30349-6.24784   C29.7052,2.90112,20.30702,2.89976,10.77028,4.53836c-3.23733,0.58328-5.62695,2.99913-6.22334,6.30345   C3.7264,15.09159,3.31205,19.8609,3.31205,25.03713c0,5.12605,0.41435,9.86822,1.23081,14.09765   c0.58824,3.32467,2.97786,5.73781,6.23964,6.3238c9.49599,1.63589,18.92678,1.63724,28.44722-0.00136   c3.30118-0.59277,5.71933-3.00591,6.29942-6.29667c0.76892-4.36914,1.15881-9.12217,1.15881-14.12342v-1.26015   c0-0.9129,0.74175-1.65352,1.65602-1.65352S50,22.86409,50,23.77699v1.26015c0,5.19252-0.4062,10.13816-1.20772,14.6972   c-0.81646,4.62145-4.34452,8.14552-8.98791,8.97974C34.84717,49.56865,29.86958,50,24.99932,50z"/><path class="st1" d="M48.18367,20.78464c-0.8219,0-1.53648-0.61176-1.64108-1.44869l-0.0788-0.6294   c-0.11275-0.90611,0.53118-1.73219,1.43866-1.84614c0.88982-0.10445,1.73482,0.52902,1.84893,1.43649l0.07879,0.62939   c0.11276,0.90611-0.53118,1.73219-1.43866,1.84614C48.32224,20.78057,48.25296,20.78464,48.18367,20.78464z"/><path class="st1" d="M32.33392,49.6853c-0.91428,0-1.65603-0.74063-1.65603-1.65352V30.54977   c0-0.9129,0.74175-1.65352,1.65603-1.65352h4.1815l0.43065-2.75632h-4.61214c-0.91428,0-1.65603-0.74063-1.65603-1.65352v-4.88189   c0-2.12828,1.76878-3.85912,3.94376-3.85912h2.76049v-2.83499h-4.25893c-3.26179,0-5.91496,2.64916-5.91496,5.90601v5.66999   c0,0.9129-0.74175,1.65352-1.65602,1.65352h-3.94376v2.75632h3.94376c0.91428,0,1.65602,0.74063,1.65602,1.65352v12.60012   c0,0.9129-0.74175,1.65352-1.65602,1.65352s-1.65602-0.74063-1.65602-1.65352v-10.9466h-3.94376   c-0.91428,0-1.65602-0.74063-1.65602-1.65352v-6.06336c0-0.9129,0.74175-1.65352,1.65602-1.65352h3.94376v-4.01647   c0-5.07993,4.13938-9.21305,9.22701-9.21305h5.91496c0.91428,0,1.65602,0.74062,1.65602,1.65352v6.14204   c0,0.9129-0.74174,1.65352-1.65602,1.65352h-4.41652c-0.35593,0-0.63171,0.29706-0.63171,0.55208v3.22837h4.89064   c0.48363,0,0.94281,0.21161,1.25798,0.57785c0.31517,0.3676,0.45238,0.85321,0.37902,1.33068l-0.94688,6.06336   c-0.12634,0.80438-0.82054,1.39851-1.637,1.39851h-3.94376v15.82849C33.98995,48.94468,33.2482,49.6853,32.33392,49.6853z"/></g></svg>